<svg xmlns="http://www.w3.org/2000/svg" viewBox="0 0 540 540">
<path d="M 412 139 L 406 145 L 405 154 L 400 164 L 400 169 L 395 181 L 393 204 L 384 231 L 383 241 L 378 252 L 377 274 L 373 282 L 372 292 L 363 320 L 361 330 L 361 343 L 358 350 L 355 367 L 352 371 L 348 389 L 345 395 L 346 397 L 365 399 L 470 400 L 476 389 L 477 379 L 482 364 L 483 342 L 480 339 L 456 340 L 448 338 L 425 338 L 423 335 L 426 330 L 430 314 L 430 300 L 433 291 L 437 289 L 494 290 L 497 285 L 498 264 L 503 252 L 505 238 L 500 236 L 448 236 L 446 234 L 446 225 L 449 218 L 451 205 L 454 203 L 514 203 L 515 190 L 518 184 L 519 170 L 524 159 L 526 146 L 524 142 L 519 141 L 449 141 Z" fill="black"/><path d="M 337 141 L 333 139 L 287 140 L 274 138 L 245 138 L 243 140 L 236 182 L 231 196 L 231 202 L 226 214 L 224 239 L 208 295 L 208 309 L 204 318 L 202 333 L 199 338 L 198 347 L 195 353 L 195 358 L 189 375 L 188 394 L 190 396 L 244 397 L 252 394 L 253 386 L 257 376 L 257 362 L 263 346 L 263 339 L 266 330 L 269 326 L 269 318 L 271 316 L 271 312 L 275 301 L 277 278 L 290 240 L 293 216 L 296 211 L 296 204 L 300 198 L 312 198 L 315 200 L 315 202 L 312 206 L 311 214 L 309 217 L 309 232 L 303 249 L 301 262 L 298 267 L 295 281 L 292 285 L 292 301 L 289 308 L 289 313 L 292 316 L 349 317 L 355 313 L 356 303 L 362 286 L 362 271 L 370 247 L 372 233 L 377 222 L 377 205 L 379 199 L 377 192 L 362 175 L 361 170 L 345 153 L 343 147 Z" fill="black"/><path d="M 79 136 L 75 138 L 73 141 L 73 146 L 70 151 L 70 155 L 67 162 L 67 176 L 61 200 L 57 207 L 57 213 L 55 216 L 53 230 L 51 234 L 51 249 L 45 266 L 43 279 L 36 298 L 34 322 L 29 334 L 29 340 L 25 346 L 23 361 L 18 373 L 18 388 L 16 390 L 16 393 L 18 395 L 119 395 L 168 397 L 171 395 L 172 385 L 175 381 L 177 366 L 181 358 L 185 338 L 188 334 L 188 317 L 191 311 L 191 304 L 203 268 L 204 260 L 207 255 L 210 226 L 214 220 L 220 196 L 209 183 L 207 177 L 191 162 L 185 150 L 171 138 L 86 138 Z" fill="black"/>
</svg>